<svg width="110" height="74" viewBox="0 0 110 74" fill="none" xmlns="http://www.w3.org/2000/svg">
<path d="M37.0216 74C43.3156 74.0058 49.5059 72.3973 55 69.3282C60.4941 72.3973 66.6844 74.0058 72.9784 74C93.3922 74 110 57.4019 110 37C110 16.5981 93.3922 1.58532e-05 72.9784 1.58532e-05C66.6844 -0.00582561 60.4941 1.60274 55 4.6718C49.5059 1.60274 43.3156 -0.00582561 37.0216 1.58532e-05C16.6078 1.58532e-05 0 16.5981 0 37C0 57.4019 16.6074 74 37.0216 74ZM38.0858 37C38.0858 36.4305 38.102 35.8645 38.1288 35.3014H71.8712C71.8984 35.8645 71.9142 36.4305 71.9142 37C71.9142 37.5695 71.898 38.1355 71.8712 38.6986H38.1288C38.1008 38.1328 38.0865 37.5665 38.0858 37ZM62.4945 13.2039C63.498 14.2766 64.4333 15.4111 65.295 16.6007H44.7046C45.566 15.411 46.5013 14.2765 47.5051 13.2039H62.4945ZM49.6693 11.0762C51.3174 9.59376 53.1022 8.27073 55 7.12485C56.8978 8.2707 58.6827 9.59373 60.3307 11.0762H49.6693ZM66.7252 18.728C67.4033 19.8254 68.02 20.9595 68.5725 22.1252H41.4271C41.9794 20.9594 42.5961 19.8253 43.2744 18.728H66.7252ZM69.4895 24.2524C69.9284 25.3643 70.3092 26.4983 70.6303 27.6496H39.3697C39.6908 26.4983 40.0716 25.3643 40.5105 24.2524H69.4895ZM71.1567 29.7769C71.3925 30.8908 71.5738 32.0241 71.6997 33.1737H38.2999C38.4244 32.0331 38.6056 30.8995 38.8429 29.7769H71.1567ZM71.7001 40.8259C71.5756 41.9666 71.3944 43.1004 71.1572 44.2231H38.8433C38.6061 43.1004 38.4248 41.9666 38.3003 40.8259H71.7001ZM70.6299 46.3504C70.3087 47.5015 69.928 48.6353 69.4895 49.7471H40.5105C40.072 48.6353 39.6913 47.5015 39.3701 46.3504H70.6299ZM68.5725 51.8748C68.0202 53.0406 67.4035 54.1748 66.7252 55.272H43.2744C42.5963 54.1746 41.9796 53.0405 41.4271 51.8748H68.5725ZM65.2954 57.3993C64.434 58.5891 63.4987 59.7235 62.495 60.7961H47.5055C46.502 59.7234 45.5667 58.5889 44.705 57.3993H65.2954ZM60.3307 62.9238C58.6827 64.4062 56.8978 65.7293 55 66.8751C53.1022 65.7293 51.3173 64.4063 49.6693 62.9238H60.3307ZM72.9784 2.1273C92.2182 2.1273 107.871 17.7711 107.871 37C107.871 56.2289 92.2182 71.8727 72.9784 71.8727C67.4634 71.8764 62.0271 70.5651 57.1209 68.0477C67.2941 61.4464 74.0427 49.9998 74.0427 37C74.0427 24.0002 67.2941 12.5536 57.1209 5.95234C62.0271 3.43492 67.4634 2.12361 72.9784 2.1273ZM37.0216 2.1273C42.5366 2.12356 47.973 3.43487 52.8791 5.95234C42.7059 12.5536 35.9573 24.0002 35.9573 37C35.9573 49.9998 42.7059 61.4464 52.8791 68.0477C47.9729 70.5651 42.5366 71.8764 37.0216 71.8727C17.7818 71.8727 2.12853 56.2289 2.12853 37C2.12853 17.7711 17.7814 2.1273 37.0216 2.1273Z" fill="#FFE815"/>
</svg>
