<svg width="60" height="35" viewBox="0 0 60 35" fill="none" xmlns="http://www.w3.org/2000/svg">
<g filter="url(#filter0_d_92_45)">
<path d="M13.6128 8.76847L54.8019 9.73146C56.3965 9.76565 56.4023 12.2102 54.8019 12.176L22.6722 11.4238L13.6128 11.2244C12.0182 11.1731 12.0124 8.72858 13.6128 8.76847ZM4.61117 8.6488C10.2848 6.01624 15.8584 3.18804 21.3318 0.164196C22.7184 -0.60506 23.9722 1.53746 22.5798 2.27822C17.6225 5.02096 12.5844 7.59654 7.46534 10.005C12.6312 14.5485 17.2807 19.6327 21.3318 25.1679C21.4948 25.4489 21.5395 25.7819 21.4564 26.0951C21.3732 26.4084 21.1687 26.677 20.8869 26.8431C20.6018 26.9993 20.2665 27.0408 19.9511 26.959C19.6357 26.8773 19.3645 26.6786 19.194 26.4044C14.8999 20.5665 9.91953 15.251 4.35695 10.5691C4.22452 10.4359 4.12452 10.2748 4.0645 10.0979C4.00448 9.92098 3.98602 9.73294 4.0105 9.54797C4.03499 9.363 4.10179 9.18594 4.20585 9.03017C4.30991 8.8744 4.44851 8.74399 4.61117 8.6488Z" fill="#57595C"/>
</g>
<defs>
<filter id="filter0_d_92_45" x="0" y="0" width="60" height="35" filterUnits="userSpaceOnUse" color-interpolation-filters="sRGB">
<feFlood flood-opacity="0" result="BackgroundImageFix"/>
<feColorMatrix in="SourceAlpha" type="matrix" values="0 0 0 0 0 0 0 0 0 0 0 0 0 0 0 0 0 0 127 0" result="hardAlpha"/>
<feOffset dy="4"/>
<feGaussianBlur stdDeviation="2"/>
<feComposite in2="hardAlpha" operator="out"/>
<feColorMatrix type="matrix" values="0 0 0 0 0 0 0 0 0 0 0 0 0 0 0 0 0 0 0.25 0"/>
<feBlend mode="normal" in2="BackgroundImageFix" result="effect1_dropShadow_92_45"/>
<feBlend mode="normal" in="SourceGraphic" in2="effect1_dropShadow_92_45" result="shape"/>
</filter>
</defs>
</svg>
