<svg width="38" height="29" viewBox="0 0 38 29" fill="none" xmlns="http://www.w3.org/2000/svg">
<path d="M37.1664 0.751677L37.1673 0.751562C37.193 0.748205 37.2035 0.751286 37.2036 0.751314L37.2038 0.751352C37.2041 0.75141 37.2043 0.751457 37.2057 0.752499C37.2113 0.756737 37.2317 0.777143 37.2433 0.820532C37.255 0.863701 37.2492 0.897459 37.2429 0.912924C37.2403 0.919287 37.2375 0.923357 37.234 0.927073C37.2307 0.930475 37.2206 0.940264 37.1956 0.951687L37.195 0.951982C33.2078 2.78362 30.9372 5.22085 30.6384 7.86071L30.6384 7.86078C30.5264 8.85176 30.7287 9.79571 31.1409 10.5467C31.5477 11.288 32.1959 11.8996 33.0085 12.1016L33.0088 12.1017C34.1861 12.3939 35.2432 13.3191 36.0207 14.6975C36.7947 16.0698 37.2487 17.8236 37.2487 19.618C37.2487 21.9149 36.3648 24.1132 34.7986 25.7303C33.2332 27.3466 31.1152 28.25 28.9121 28.25C26.5035 28.25 24.4422 27.2302 22.9689 25.4414C21.488 23.6434 20.5757 21.0329 20.5754 17.842C20.6075 8.61193 27.2999 2.02652 37.1664 0.751677ZM17.3409 0.751677L17.3418 0.751562C17.3676 0.748205 17.3781 0.751286 17.3782 0.751314C17.3786 0.751427 17.3787 0.751268 17.3803 0.752499C17.3859 0.756737 17.4062 0.777143 17.4179 0.820532C17.4295 0.863701 17.4237 0.897459 17.4175 0.912924C17.4165 0.915199 17.4156 0.917183 17.4146 0.918961C17.4128 0.922153 17.4108 0.924686 17.4086 0.927073C17.4053 0.930473 17.3951 0.940264 17.3702 0.951687L17.3696 0.951982C13.3823 2.78362 11.1117 5.22085 10.813 7.86071L10.813 7.86078C10.7009 8.85176 10.9033 9.79571 11.3154 10.5467C11.7223 11.288 12.3705 11.8996 13.1831 12.1016L13.1833 12.1017C14.3607 12.3939 15.4178 13.3191 16.1953 14.6975C16.9693 16.0698 17.4233 17.8236 17.4233 19.618C17.4233 21.9149 16.5394 24.1132 14.9732 25.7303C13.4077 27.3466 11.2898 28.25 9.08666 28.25C6.6781 28.25 4.61672 27.2302 3.14342 25.4414C1.66254 23.6434 0.750275 21.0329 0.75 17.842C0.782059 8.61193 7.47448 2.02652 17.3409 0.751677Z" stroke="#0A0E1A" stroke-width="1.5"/>
</svg>
